<?xml version="1.0" encoding="UTF-8"?>
<svg id="Calque_1" data-name="Calque 1" xmlns="http://www.w3.org/2000/svg" viewBox="0 0 1000 1000">
  <defs>
    <style>
      .cls-1 {
        fill: #010101;
      }

      .cls-1, .cls-2, .cls-3, .cls-4 {
        stroke-width: 0px;
      }

      .cls-2 {
        fill: #a93c3c;
      }

      .cls-3 {
        fill: #fff;
      }

      .cls-4 {
        fill: #41444f;
      }
    </style>
  </defs>
  <g>
    <path class="cls-4" d="m47.67,449.69h26.46v85.32h46.98v22.68H47.67v-108Zm19.8,90.36v-85.32h-13.14v97.92l13.14-12.6Z"/>
    <path class="cls-4" d="m133.89,449.69h71.46v23.4h-45v19.44h41.58v23.04h-41.58v19.44h46.98v22.68h-73.44v-108Zm19.8,90.36v-72l-13.14-13.32v97.92l13.14-12.6Z"/>
    <path class="cls-4" d="m266,449.69h45.18c22.14,0,35.1,16.38,35.1,34.56,0,20.16-15.12,34.56-35.1,34.56h-18.9v38.88h-26.28v-108Zm19.62,102.96v-97.92h-12.96v97.92h12.96Zm23.04-56.52c6.84,0,10.62-6.3,10.62-12.6,0-5.94-3.6-11.34-10.62-11.34h-16.38v23.94h16.38Z"/>
    <path class="cls-4" d="m363.2,449.69h26.46v108h-26.46v-108Zm19.8,102.96v-38.52h-13.14v38.52h13.14Z"/>
    <path class="cls-4" d="m426.02,473.09h-24.12v-23.4h75.24v23.4h-24.48v84.6h-26.64v-84.6Zm20.16,79.56v-79.56h-13.86v79.56h13.86Z"/>
    <path class="cls-4" d="m556.88,526.01c0,6.3,5.04,11.34,11.16,11.34,6.66,0,10.8-3.78,10.8-9.36,0-8.1-10.62-10.44-19.44-13.5-18.18-6.48-28.26-14.94-28.26-33.48s16.38-34.92,36.72-34.92c23.94,0,35.28,15.3,36.72,35.28h-24.84c0-6.12-3.78-11.16-11.16-11.16-5.76,0-11.34,3.42-11.34,10.44,0,8.1,9.9,9.54,19.08,12.24,19.26,5.76,28.26,16.56,28.26,33.48,0,19.08-16.2,34.92-36.54,34.92-23.58,0-36.9-15.84-36.9-35.28h25.74Zm11.16,30.24v-13.86c-9.18-.18-14.94-5.4-16.56-11.34h-14.04c.36,13.5,13.5,25.2,30.6,25.2Zm30.06-79.92c-1.08-10.62-9-25.2-30.06-25.2v14.04c11.16,0,14.94,6.66,16.56,11.16h13.5Z"/>
    <path class="cls-4" d="m622.4,449.69h26.46v42.48h42.3v-42.48h26.28v108h-26.28v-42.66h-42.3v42.66h-26.46v-108Zm19.8,102.96v-37.62h-13.14v37.62h13.14Zm68.58,0v-37.62h-12.96v37.62h12.96Z"/>
    <path class="cls-4" d="m872.41,449.69h45.18c22.14,0,35.1,16.38,35.1,34.56,0,20.16-15.12,34.56-35.1,34.56h-18.9v38.88h-26.28v-108Zm19.62,102.96v-97.92h-12.96v97.92h12.96Zm23.04-56.52c6.84,0,10.62-6.3,10.62-12.6,0-5.94-3.6-11.34-10.62-11.34h-16.38v23.94h16.38Z"/>
  </g>
  <g>
    <circle class="cls-4" cx="796" cy="500.81" r="52.59"/>
    <g>
      <circle class="cls-3" cx="796" cy="500.81" r="24.58"/>
      <circle class="cls-3" cx="796" cy="500.81" r="8.55"/>
      <path class="cls-2" d="m779.29,536.65c-1.08,2.32-3.93,3.16-6.12,1.84-12.72-7.72-21.21-21.71-21.21-37.67s8.49-29.95,21.21-37.67c2.19-1.33,5.04-.48,6.12,1.84.92,1.97.21,4.33-1.65,5.46-10.27,6.22-17.13,17.5-17.13,30.38s6.86,24.16,17.13,30.38c1.86,1.13,2.57,3.48,1.65,5.46Zm60.75-35.83c0,15.97-8.49,29.95-21.21,37.67-2.19,1.33-5.04.48-6.12-1.84-.92-1.97-.21-4.33,1.65-5.46,10.27-6.22,17.13-17.5,17.13-30.38s-6.86-24.16-17.13-30.38c-1.86-1.13-2.57-3.48-1.65-5.46,1.08-2.32,3.93-3.16,6.12-1.84,12.72,7.72,21.21,21.71,21.21,37.67Zm-37.62-39.71c0,2.45-2.05,4.4-4.49,4.27-1.28-.07-2.56-.07-3.84,0-2.44.13-4.49-1.82-4.49-4.27,0-2.29,1.8-4.15,4.08-4.27,1.55-.08,3.11-.08,4.66,0,2.28.12,4.08,1.99,4.08,4.27Zm0,79.41c0,2.29-1.8,4.15-4.08,4.27-1.55.08-3.11.08-4.66,0-2.28-.12-4.08-1.99-4.08-4.27,0-2.45,2.05-4.4,4.49-4.27,1.28.07,2.56.07,3.84,0,2.44-.13,4.49,1.82,4.49,4.27Z"/>
    </g>
    <circle class="cls-1" cx="832.64" cy="538.54" r="2.14"/>
    <path class="cls-1" d="m849.61,489.78c-.72-3.52-1.79-6.96-3.19-10.27-1.38-3.25-3.07-6.37-5.05-9.3-1.96-2.91-4.2-5.62-6.68-8.1-2.48-2.48-5.19-4.72-8.1-6.68-2.93-1.98-6.04-3.67-9.29-5.05-3.31-1.4-6.75-2.47-10.27-3.19-7.21-1.48-14.85-1.48-22.06,0-3.52.72-6.96,1.79-10.27,3.19-3.25,1.38-6.37,3.07-9.29,5.05-2.91,1.96-5.62,4.2-8.1,6.68-2.48,2.48-4.72,5.19-6.68,8.1-1.98,2.93-3.67,6.04-5.05,9.3-1.4,3.31-2.47,6.75-3.19,10.27-.74,3.6-1.11,7.32-1.11,11.03s.37,7.42,1.11,11.03c.72,3.52,1.79,6.96,3.19,10.27,1.38,3.25,3.07,6.37,5.05,9.3,1.97,2.91,4.2,5.62,6.68,8.1,2.48,2.48,5.19,4.72,8.1,6.68,2.93,1.98,6.04,3.67,9.29,5.05,3.31,1.4,6.75,2.47,10.27,3.19,3.6.74,7.31,1.11,11.02,1.11h0s0,0,0,0c10.9,0,21.36-3.18,30.36-9.19.98-.66,1.25-1.99.59-2.97-.4-.6-1.06-.95-1.78-.95-.42,0-.83.12-1.19.36-8.29,5.54-17.97,8.47-27.99,8.47-13.47,0-26.14-5.25-35.67-14.78-9.53-9.53-14.78-22.2-14.78-35.68s5.25-26.14,14.78-35.68c9.53-9.53,22.2-14.77,35.67-14.78,13.47,0,26.14,5.25,35.67,14.78,9.53,9.53,14.78,22.2,14.78,35.68,0,10.54-3.22,20.63-9.3,29.19-.33.46-.46,1.04-.37,1.59.09.56.41,1.06.87,1.39.36.26.79.4,1.24.4.69,0,1.34-.34,1.74-.9,3.21-4.51,5.72-9.49,7.43-14.76,1.77-5.45,2.66-11.13,2.66-16.91,0-3.71-.37-7.42-1.11-11.03h0Z"/>
    <path class="cls-1" d="m822.72,500.81c0-14.74-11.99-26.72-26.72-26.72s-26.72,11.99-26.72,26.72,11.99,26.72,26.72,26.72c14.73,0,26.72-11.99,26.72-26.72h0Zm-4.38-2.13h-11.87c-.28-1.28-.82-2.63-1.56-3.75l8.39-8.39c2.78,3.37,4.6,7.66,5.04,12.14Zm-20.21-20.21c4.59.44,8.78,2.26,12.14,5.04l-8.39,8.39c-1.14-.76-2.41-1.29-3.75-1.56v-11.87Zm-4.28,0v11.87c-1.34.27-2.61.8-3.75,1.56l-8.39-8.39c3.37-2.78,7.56-4.6,12.14-5.04Zm-15.17,8.06l8.39,8.39c-.74,1.12-1.28,2.47-1.56,3.75h-11.87c.44-4.49,2.26-8.78,5.04-12.15Zm-5.04,16.42h11.87c.28,1.28.82,2.63,1.56,3.75l-8.39,8.39c-2.78-3.37-4.6-7.65-5.04-12.14Zm20.21,20.2c-4.59-.44-8.78-2.26-12.14-5.04l8.39-8.39c1.14.76,2.41,1.29,3.75,1.56v11.87Zm-4.28-22.35c0-3.54,2.88-6.41,6.41-6.41s6.41,2.88,6.41,6.41-2.88,6.41-6.41,6.41-6.41-2.88-6.41-6.41h0Zm8.55,22.35v-11.87c1.34-.27,2.61-.8,3.75-1.56l8.39,8.39c-3.37,2.78-7.56,4.6-12.14,5.04Zm6.78-16.45c.74-1.12,1.28-2.47,1.56-3.75h11.87c-.44,4.49-2.26,8.78-5.04,12.14l-8.39-8.39Z"/>
    <path class="cls-1" d="m762.65,500.81c0-11.77,6.02-22.44,16.1-28.55,2.8-1.7,3.87-5.22,2.48-8.19-.77-1.65-2.2-2.89-3.95-3.42-1.75-.53-3.65-.29-5.22.66-6.66,4.05-12.23,9.75-16.12,16.51-4,6.96-6.12,14.91-6.12,22.99s2.12,16.03,6.12,22.99c3.88,6.75,9.46,12.46,16.12,16.51,1.01.61,2.17.94,3.36.94.63,0,1.25-.09,1.86-.28,1.74-.53,3.18-1.77,3.95-3.42,1.39-2.97.32-6.49-2.48-8.19-10.08-6.11-16.1-16.78-16.1-28.55Zm14.7,34.93c-.25.55-.73.97-1.31,1.14-.6.18-1.22.1-1.76-.23-12.64-7.68-20.18-21.08-20.18-35.84s7.55-28.17,20.18-35.84c.34-.21.73-.32,1.13-.32.21,0,.42.03.63.09.58.17,1.06.59,1.31,1.14.46.99.11,2.16-.82,2.73-5.44,3.29-9.99,7.94-13.16,13.45-3.27,5.68-5,12.16-5,18.75s1.73,13.07,5,18.75c3.17,5.51,7.72,10.16,13.16,13.45.93.56,1.28,1.73.82,2.73h0Zm58.7-57.92c-3.88-6.75-9.46-12.46-16.12-16.51-1.57-.95-3.46-1.19-5.22-.66-1.74.53-3.18,1.77-3.95,3.42-1.39,2.97-.32,6.49,2.48,8.19,10.08,6.11,16.1,16.78,16.1,28.55s-6.02,22.44-16.1,28.55c-2.8,1.7-3.87,5.22-2.48,8.19.77,1.65,2.2,2.89,3.95,3.42.6.18,1.23.28,1.86.28,1.18,0,2.34-.32,3.36-.94,6.66-4.05,12.23-9.75,16.12-16.51,4-6.96,6.12-14.91,6.12-22.99s-2.12-16.03-6.12-22.99h0Zm-18.34,58.83c-.54.33-1.16.41-1.76.23-.58-.17-1.06-.59-1.31-1.14-.46-.99-.11-2.16.82-2.73,5.44-3.29,9.99-7.94,13.16-13.45,3.27-5.68,5-12.16,5-18.75s-1.73-13.07-5-18.75c-3.17-5.51-7.72-10.16-13.16-13.45-.93-.56-1.28-1.73-.82-2.73.25-.55.73-.97,1.31-1.14.21-.06.42-.09.63-.09.39,0,.78.11,1.13.32,12.64,7.68,20.18,21.08,20.18,35.84s-7.55,28.17-20.18,35.84h0Zm-23.88-69.14c.12,0,2.77-.07,3.97,0,1.77.1,3.45-.53,4.74-1.75,1.28-1.21,2-2.9,2-4.66,0-3.41-2.68-6.23-6.11-6.41-1.63-.08-3.26-.08-4.89,0-3.43.18-6.11,2.99-6.11,6.41,0,1.76.73,3.44,2,4.66,1.2,1.14,2.75,1.76,4.39,1.76Zm-.06-8.55c.74-.04,3.7-.04,4.44,0,1.15.06,2.06,1,2.06,2.14,0,.59-.24,1.15-.67,1.56-.42.4-.99.61-1.57.58-1.36-.07-2.72-.07-4.07,0-.58.03-1.15-.18-1.57-.58-.43-.4-.67-.97-.67-1.55,0-1.14.9-2.08,2.06-2.14Zm4.03,75.15c-1.2.06-2.42.06-3.62,0-1.77-.1-3.45.53-4.74,1.75-1.28,1.21-2,2.9-2,4.66,0,3.41,2.68,6.23,6.11,6.41.81.04,4.08.04,4.89,0,3.43-.18,6.11-2.99,6.11-6.41,0-1.76-.73-3.44-2-4.66-1.29-1.22-2.97-1.84-4.74-1.75Zm.41,8.54c-1.48.08-2.96.08-4.44,0-1.15-.06-2.06-1-2.06-2.14,0-.59.24-1.15.67-1.56.42-.4.99-.61,1.57-.58,1.35.07,2.72.07,4.07,0,.58-.03,1.15.18,1.57.58.43.4.67.97.67,1.56,0,1.14-.9,2.08-2.06,2.14Z"/>
  </g>
</svg>